# xmcd
#
# Track frame offsets: 
#        150
#        27970
#        60593
#        86862
#        118717
#        146360
#        175325
#        202016
#        223253
#        241308
#        267502
#        303694
#
# Disc length: 4594 seconds
#
# Revision: 5
# Processed by: cddbd v1.5.2PL0 Copyright (c) Steve Scherf et al.
# Submitted via: ExactAudioCopy v1.0b1
#
DISCID=b911f00c
DTITLE=Leonard Cohen - Blossoms Of Heaven, Ashes Of Hell [CD 1)
DYEAR=1998
DGENRE=Folk
TTITLE0=Dance Me To The End Of Love
TTITLE1=The Future
TTITLE2=Ain't No Cure For Love
TTITLE3=Bird On The Wire
TTITLE4=Everybody Knows
TTITLE5=Anthem
TTITLE6=First We Take Manhattan
TTITLE7=Avalanche
TTITLE8=Chelsea Hotel #2
TTITLE9=Tower Of Song
TTITLE10=Democracy
TTITLE11=Waiting For The Miracle
EXTD=
EXTT0=
EXTT1=
EXTT2=
EXTT3=
EXTT4=
EXTT5=
EXTT6=
EXTT7=
EXTT8=
EXTT9=
EXTT10=
EXTT11=
PLAYORDER=
